<mxfile host="app.diagrams.net" modified="2024-03-05T13:13:59.963Z" agent="Mozilla/5.0 (X11; Linux x86_64; rv:109.0) Gecko/20100101 Firefox/115.0" version="24.0.1" etag="v9wDw-nNixZGqjcgqlVr" type="github">
  <diagram name="Page-1" id="hOQKtH4IWWjvnmXXgJGV">
    <mxGraphModel>
      <root>
        <mxCell id="0" />
        <mxCell id="1" parent="0" />
      </root>
    </mxGraphModel>
  </diagram>
</mxfile>
